<?xml version="1.0" encoding="UTF-8" standalone="no"?>
<!-- Uploaded to: SVG Repo, www.svgrepo.com, Generator: SVG Repo Mixer Tools -->

<svg
   width="800px"
   height="800px"
   viewBox="0 0 24 24"
   fill="none"
   version="1.1"
   id="svg36"
   sodipodi:docname="face-scan-square-svgrepo-com.svg"
   inkscape:version="1.2.2 (b0a8486541, 2022-12-01)"
   xmlns:inkscape="http://www.inkscape.org/namespaces/inkscape"
   xmlns:sodipodi="http://sodipodi.sourceforge.net/DTD/sodipodi-0.dtd"
   xmlns="http://www.w3.org/2000/svg"
   xmlns:svg="http://www.w3.org/2000/svg">
  <defs
     id="defs40" />
  <sodipodi:namedview
     id="namedview38"
     pagecolor="#ffffff"
     bordercolor="#000000"
     borderopacity="0.25"
     inkscape:showpageshadow="2"
     inkscape:pageopacity="0.0"
     inkscape:pagecheckerboard="0"
     inkscape:deskcolor="#d1d1d1"
     showgrid="false"
     inkscape:zoom="0.295"
     inkscape:cx="-244.0678"
     inkscape:cy="400"
     inkscape:window-width="1920"
     inkscape:window-height="1150"
     inkscape:window-x="0"
     inkscape:window-y="24"
     inkscape:window-maximized="1"
     inkscape:current-layer="svg36" />
  <path
     d="M9 16C9.85038 16.6303 10.8846 17 12 17C13.1154 17 14.1496 16.6303 15 16"
     stroke="#1C274C"
     stroke-width="1.5"
     stroke-linecap="round"
     id="path22"
     style="stroke:#5b7bfd;stroke-opacity:0.94928551" />
  <ellipse
     cx="15"
     cy="10.5"
     rx="1"
     ry="1.5"
     fill="#1C274C"
     id="ellipse24"
     style="fill:#5b7bfd;fill-opacity:0.94901961" />
  <ellipse
     cx="9"
     cy="10.5"
     rx="1"
     ry="1.5"
     fill="#1C274C"
     id="ellipse26"
     style="fill:#5b7bfd;fill-opacity:0.94901961" />
  <path
     d="M22 14C22 17.7712 22 19.6569 20.8284 20.8284C19.6569 22 17.7712 22 14 22"
     stroke="#1C274C"
     stroke-width="1.5"
     stroke-linecap="round"
     id="path28"
     style="stroke:#5b7bfd;stroke-opacity:0.94928551" />
  <path
     d="M10 22C6.22876 22 4.34315 22 3.17157 20.8284C2 19.6569 2 17.7712 2 14"
     stroke="#1C274C"
     stroke-width="1.5"
     stroke-linecap="round"
     id="path30"
     style="stroke:#5b7bfd;stroke-opacity:0.94928551" />
  <path
     d="M10 2C6.22876 2 4.34315 2 3.17157 3.17157C2 4.34315 2 6.22876 2 10"
     stroke="#1C274C"
     stroke-width="1.5"
     stroke-linecap="round"
     id="path32"
     style="stroke:#5b7bfd;stroke-opacity:0.94928551" />
  <path
     d="M14 2C17.7712 2 19.6569 2 20.8284 3.17157C22 4.34315 22 6.22876 22 10"
     stroke="#1C274C"
     stroke-width="1.5"
     stroke-linecap="round"
     id="path34"
     style="stroke:#5b7bfd;stroke-opacity:0.94928551" />
</svg>
